# xmcd
#
# Track frame offsets: 
#        150
#        8910
#        18270
#        28238
#        39330
#        51085
#        60978
#        71155
#        82868
#        93883
#        105095
#        117295
#        129148
#        142648
#        153415
#        164930
#        176388
#        188170
#        203868
#        213808
#        218688
#        235150
#        247258
#        252165
#        270458
#        286398
#        301888
#        314668
#
# Disc length: 4353 seconds
#
# Revision: 5
# Processed by: cddbd v1.5.2PL0 Copyright (c) Steve Scherf et al.
# Submitted via: ExactAudioCopy v0.99pb5
#
DISCID=7610ff1c
DTITLE=Elvis Presley - The Sun Sessions CD
DYEAR=1987
DGENRE=Rock and Roll
TTITLE0=That's All Right
TTITLE1=Blue Moon of Kentucky
TTITLE2=Good Rockin' Tonight
TTITLE3=I Don't Care if the Sun Don't Shine
TTITLE4=Milkcow Blues Boogie
TTITLE5=You're A Heartbreaker
TTITLE6=Baby, Let's Play House
TTITLE7=I'm Left, You're Right, She's Gone
TTITLE8=Mystery Train
TTITLE9=I Forgot To Remember To Forget
TTITLE10=I Love You Because
TTITLE11=Blue Moon
TTITLE12=Tomorrow Night
TTITLE13=I'll Never Let You Go (Little Darlin')
TTITLE14=Just Because
TTITLE15=Trying To Get To You
TTITLE16=Harbor Lights (Outtake)
TTITLE17=I Love You Because - Take 2 (Outtake)
TTITLE18=That's All Right (Outtake)
TTITLE19=Blue Moon of Kentucky (Outtake)
TTITLE20=I Don't Care if the Sun Don't Shine (Outtake)
TTITLE21=I'm Left, You're Right, She's Gone (My Baby's Gone) - Take 9 
TTITLE21=(Outtake)
TTITLE22=I'll Never Let You Go (Little Darlin') (Outtake)
TTITLE23=When It Rains, It Really Pours (Outtake)
TTITLE24=I Love You Because - Take 3 (Alternate Take)
TTITLE25=I Love You Because - Take 5 (Alternate Take)
TTITLE26=I'm Left, You're Right, She's Gone (My Baby's Gone) - Take 7 
TTITLE26=(Alternate Take)
TTITLE27=I'm Left, You're Right, She's Gone (My Baby's Gone) - Take 12
TTITLE27=(Alternate Take)
EXTD=RCA 6414-2-R\n1987 BMG Music YEAR: 1987 ID3G:  17
EXTT0=
EXTT1=
EXTT2=
EXTT3=
EXTT4=
EXTT5=
EXTT6=
EXTT7=
EXTT8=
EXTT9=
EXTT10=
EXTT11=
EXTT12=
EXTT13=
EXTT14=
EXTT15=
EXTT16=
EXTT17=
EXTT18=
EXTT19=
EXTT20=
EXTT21=
EXTT22=
EXTT23=
EXTT24=
EXTT25=
EXTT26=
EXTT27=
PLAYORDER=
